# xmcd CD database file
#
# Track frame offsets:
#	150
#	20375
#	40062
#	60287
#
# Disc length: 1062 seconds
#
# Revision: 1
# Processed by: cddbd v1.5.2PL0 Copyright (c) Steve Scherf et al.
# Submitted via: CDex 1.70beta2
#
DISCID=23042404
DTITLE=エレファントカシマシ - 新しい季節へキミと
DYEAR=2008
DGENRE=Rock
TTITLE0=新しい季節へキミと
TTITLE1=It's my life
TTITLE2=新しい季節へキミと(Instrumental)
TTITLE3=It's my life(Instrumental)
EXTD=YEAR: 2008
EXTT0=
EXTT1=
EXTT2=
EXTT3=
PLAYORDER=
